<!-- Saengvith Science • Favicon -->
<svg width="64" height="64" viewBox="0 0 64 64" xmlns="http://www.w3.org/2000/svg" role="img" aria-label="SVS">
  <defs>
    <linearGradient id="fb" x1="0" y1="0" x2="1" y2="1">
      <stop offset="0" stop-color="#0A4CFF"></stop>
      <stop offset="1" stop-color="#001A7A"></stop>
    </linearGradient>
    <radialGradient id="fg" cx="50%" cy="40%" r="80%">
      <stop offset="0" stop-color="#39C0FF" stop-opacity="0.9"></stop>
      <stop offset="1" stop-color="#39C0FF" stop-opacity="0"></stop>
    </radialGradient>
    <filter id="fsoft" x="-40%" y="-40%" width="180%" height="180%">
      <feGaussianBlur stdDeviation="2.8"></feGaussianBlur>
    </filter>
  </defs>

  <circle cx="32" cy="32" r="24" fill="url(#fg)" filter="url(#fsoft)"></circle>
  <!-- Beaker silhouette -->
  <path d="M18 10h28a2 2 0 1 1 0 4h-6v7l11 21a6 6 0 0 1-5 9H18a6 6 0 0 1-5-9l11-21v-7h-6a2 2 0 1 1 0-4z" fill="white"></path>
  <!-- Liquid -->
  <path d="M15 38h34v6a6 6 0 0 1-6 6H21a6 6 0 0 1-6-6z" fill="url(#fb)"></path>
  <!-- Atom minimal -->
  <g transform="translate(32,36)" stroke="#fff" stroke-width="1.6" fill="none">
    <circle r="1.8" fill="#fff" stroke="none"></circle>
    <ellipse rx="8" ry="3.4"></ellipse>
    <ellipse rx="8" ry="3.4" transform="rotate(60)"></ellipse>
    <ellipse rx="8" ry="3.4" transform="rotate(-60)"></ellipse>
  </g>
</svg>
